<svg width="337" height="321" viewBox="0 0 337 321" fill="none" xmlns="http://www.w3.org/2000/svg">
<path d="M101.561 109.592C105.484 108.836 108.581 105.817 109.436 101.914L121.808 45.48L149.738 96.0543C151.67 99.5517 155.498 101.564 159.473 101.172L216.969 95.4996L177.501 137.691C174.771 140.608 174.041 144.871 175.642 148.531L198.804 201.46L146.481 176.961C142.863 175.267 138.583 175.889 135.597 178.543L92.4167 216.927L99.5481 159.595C100.041 155.63 98.127 151.752 94.6797 149.732L44.8312 120.527L101.561 109.592Z" stroke="white" stroke-width="10"/>
<path d="M245.414 156.151C245.27 160.144 247.517 163.84 251.128 165.55L303.343 190.276L247.789 206.138C243.947 207.235 241.127 210.513 240.616 214.476L233.235 271.777L200.983 223.844C198.752 220.529 194.762 218.86 190.836 219.599L134.059 230.286L169.679 184.799C172.142 181.653 172.497 177.344 170.581 173.838L142.872 123.142L197.139 142.963C200.892 144.334 205.101 143.339 207.843 140.434L247.495 98.4148L245.414 156.151Z" stroke="white" stroke-width="10"/>
</svg>
